<svg width="30" height="30" viewBox="0 0 30 30" fill="none" xmlns="http://www.w3.org/2000/svg">
<path d="M15.0001 10.099C12.2971 10.099 10.0991 12.297 10.0991 15C10.0991 17.703 12.2971 19.901 15.0001 19.901C17.703 19.901 19.901 17.703 19.901 15C19.901 12.297 17.703 10.099 15.0001 10.099ZM15.0001 18.4752C13.0991 18.4752 11.5248 16.9307 11.5248 15C11.5248 13.0693 13.0694 11.5247 15.0001 11.5247C16.9307 11.5247 18.4753 13.0693 18.4753 15C18.4753 16.9307 16.901 18.4752 15.0001 18.4752ZM15.0001 8.55445C15.3862 8.55445 15.7129 8.22772 15.7129 7.84158V5.58416C15.7129 5.19802 15.3862 4.87128 15.0001 4.87128C14.6139 4.87128 14.2872 5.19802 14.2872 5.58416V7.84158C14.2872 8.22772 14.6139 8.55445 15.0001 8.55445ZM15.0001 21.4455C14.6139 21.4455 14.2872 21.7723 14.2872 22.1584V24.4158C14.2872 24.802 14.6139 25.1287 15.0001 25.1287C15.3862 25.1287 15.7129 24.802 15.7129 24.4158V22.1584C15.7129 21.7723 15.3862 21.4455 15.0001 21.4455ZM20.0496 10.6634C20.2278 10.6634 20.406 10.604 20.5545 10.4554L22.1585 8.85148C22.4258 8.58416 22.4258 8.10891 22.1585 7.84158C21.8911 7.57425 21.4159 7.57425 21.1486 7.84158L19.5446 9.44554C19.2773 9.71287 19.2773 10.1881 19.5446 10.4554C19.6931 10.5743 19.8713 10.6634 20.0496 10.6634ZM9.4456 19.5446L7.84163 21.1485C7.57431 21.4158 7.57431 21.8911 7.84163 22.1584C7.99015 22.3069 8.16837 22.3663 8.34659 22.3663C8.5248 22.3663 8.70302 22.3069 8.85154 22.1584L10.4555 20.5545C10.7228 20.2871 10.7228 19.8119 10.4555 19.5446C10.1882 19.2772 9.71292 19.2772 9.4456 19.5446ZM24.4159 14.2871H22.1585C21.7723 14.2871 21.4456 14.6139 21.4456 15C21.4456 15.3861 21.7723 15.7129 22.1585 15.7129H24.4159C24.802 15.7129 25.1288 15.3861 25.1288 15C25.1288 14.6139 24.802 14.2871 24.4159 14.2871ZM8.55451 15C8.55451 14.6139 8.22777 14.2871 7.84163 14.2871H5.58421C5.19807 14.2871 4.87134 14.6139 4.87134 15C4.87134 15.3861 5.19807 15.7129 5.58421 15.7129H7.84163C8.22777 15.7129 8.55451 15.3861 8.55451 15ZM20.5545 19.5446C20.2872 19.2772 19.8119 19.2772 19.5446 19.5446C19.2773 19.8119 19.2773 20.2871 19.5446 20.5545L21.1486 22.1584C21.2971 22.3069 21.4753 22.3663 21.6535 22.3663C21.8317 22.3663 22.01 22.3069 22.1585 22.1584C22.4258 21.8911 22.4258 21.4158 22.1585 21.1485L20.5545 19.5446ZM9.4456 10.4554C9.59411 10.604 9.77233 10.6634 9.95055 10.6634C10.1288 10.6634 10.307 10.604 10.4555 10.4554C10.7228 10.1881 10.7228 9.71287 10.4555 9.44554L8.85154 7.84158C8.58421 7.57425 8.10896 7.57425 7.84163 7.84158C7.57431 8.10891 7.57431 8.58416 7.84163 8.85148L9.4456 10.4554Z" fill="white"/>
</svg>
